<svg width="28" height="28" viewBox="0 0 28 28" fill="none" xmlns="http://www.w3.org/2000/svg">
<path fill-rule="evenodd" clip-rule="evenodd" d="M3.50004 10.5H24.5C25.1444 10.5 25.6667 11.0223 25.6667 11.6667V23.3333C25.6667 23.9777 25.1444 24.5 24.5 24.5H3.50004C2.85571 24.5 2.33337 23.9777 2.33337 23.3333V11.6667C2.33337 11.0223 2.85571 10.5 3.50004 10.5ZM4.66671 12.8333V22.1667H23.3334V12.8333H4.66671ZM5.83337 7H22.1667C22.811 7 23.3334 7.52233 23.3334 8.16667V9.33333H4.66671V8.16667C4.66671 7.52233 5.18904 7 5.83337 7ZM9.33337 3.5H18.6667C19.311 3.5 19.8334 4.02233 19.8334 4.66667V5.83333H8.16671V4.66667C8.16671 4.02233 8.68904 3.5 9.33337 3.5Z" fill="white" fill-opacity="0.7"/>
</svg>
