<svg width="28" height="28" viewBox="0 0 28 28" fill="none" xmlns="http://www.w3.org/2000/svg">
<path fill-rule="evenodd" clip-rule="evenodd" d="M24.5 15.6531L25.6536 16.8052C25.8815 17.0329 26.2506 17.0327 26.4785 16.8052L27.3038 15.9802C27.5316 15.7521 27.5313 15.3827 27.3033 15.1552L14.4126 2.27917C14.1847 2.05159 13.8156 2.05169 13.5876 2.27917L0.71167 15.1551C0.483805 15.3829 0.483805 15.7522 0.71167 15.98L1.53654 16.805C1.7644 17.0328 2.13369 17.0328 2.36155 16.805L3.50002 15.6665V24.5006C3.50002 25.1449 4.0224 25.6673 4.66669 25.6673H10.5C11.1443 25.6673 11.6667 25.1449 11.6667 24.5006V19.8334C11.6667 18.5447 12.7113 17.5 14 17.5C15.2887 17.5 16.3334 18.5447 16.3334 19.8334V24.5006C16.3334 25.1449 16.8557 25.6673 17.5 25.6673H23.3334C23.9776 25.6673 24.5 25.1449 24.5 24.5006V15.6531ZM5.83335 13.3332L14.0002 5.16635L22.1667 13.3227V23.3339H18.6667V19.8333C18.6667 17.256 16.5773 15.1667 14 15.1667C11.4227 15.1667 9.33335 17.256 9.33335 19.8333V23.3339H5.83335V13.3332Z" fill="white" fill-opacity="0.7"/>
</svg>
