<svg width="200" height="200" viewBox="0 0 200 200" fill="none" xmlns="http://www.w3.org/2000/svg">
<g style="mix-blend-mode:hard-light" filter="url(#filter0_f_135_588)">
<path d="M81.828 97.583C81.828 88.8817 88.7976 81.828 97.3951 81.828C101.524 81.828 105.483 83.4879 108.403 86.4425C111.322 89.3971 112.962 93.4045 112.962 97.583C112.962 106.284 105.993 113.338 97.3951 113.338C88.7976 113.338 81.828 106.284 81.828 97.583Z" stroke="#3F3EE3" stroke-width="4.438"/>
<path d="M112.705 110.275L117.341 114.022H117.421C118.359 114.972 118.359 116.511 117.421 117.46C116.483 118.409 114.963 118.409 114.025 117.46L110.177 113.045C109.813 112.678 109.609 112.18 109.609 111.66C109.609 111.14 109.813 110.642 110.177 110.275C110.879 109.577 112.003 109.577 112.705 110.275Z" stroke="#3F3EE3" stroke-width="4.438"/>
</g>
<g style="mix-blend-mode:hard-light" filter="url(#filter1_f_135_588)">
<path d="M81.828 97.583C81.828 88.8817 88.7976 81.828 97.3951 81.828C101.524 81.828 105.483 83.4879 108.403 86.4425C111.322 89.3971 112.962 93.4045 112.962 97.583C112.962 106.284 105.993 113.338 97.3951 113.338C88.7976 113.338 81.828 106.284 81.828 97.583Z" stroke="#4255E3" stroke-width="5.80354"/>
<path d="M112.705 110.275L117.341 114.022H117.421C118.359 114.972 118.359 116.511 117.421 117.46C116.483 118.409 114.963 118.409 114.025 117.46L110.177 113.045C109.813 112.678 109.609 112.18 109.609 111.66C109.609 111.14 109.813 110.642 110.177 110.275C110.879 109.577 112.003 109.577 112.705 110.275Z" stroke="#4255E3" stroke-width="5.80354"/>
</g>
<g style="mix-blend-mode:hard-light" filter="url(#filter2_ddi_135_588)">
<path d="M81.828 97.583C81.828 88.8817 88.7976 81.828 97.3951 81.828C101.524 81.828 105.483 83.4879 108.403 86.4425C111.322 89.3971 112.962 93.4045 112.962 97.583C112.962 106.284 105.993 113.338 97.3951 113.338C88.7976 113.338 81.828 106.284 81.828 97.583Z" stroke="#5062E5" stroke-opacity="0.2" stroke-width="4.438"/>
<path d="M112.705 110.275L117.341 114.022H117.421C118.359 114.972 118.359 116.511 117.421 117.46C116.483 118.409 114.963 118.409 114.025 117.46L110.177 113.045C109.813 112.678 109.609 112.18 109.609 111.66C109.609 111.14 109.813 110.642 110.177 110.275C110.879 109.577 112.003 109.577 112.705 110.275Z" stroke="#5062E5" stroke-opacity="0.2" stroke-width="4.438"/>
</g>
<g filter="url(#filter3_f_135_588)">
<path d="M81.828 97.583C81.828 88.8817 88.7976 81.828 97.3951 81.828C101.524 81.828 105.483 83.4879 108.403 86.4425C111.322 89.3971 112.962 93.4045 112.962 97.583C112.962 106.284 105.993 113.338 97.3951 113.338C88.7976 113.338 81.828 106.284 81.828 97.583Z" stroke="#5062E5" stroke-width="2.73108"/>
<path d="M112.705 110.275L117.341 114.022H117.421C118.359 114.972 118.359 116.511 117.421 117.46C116.483 118.409 114.963 118.409 114.025 117.46L110.177 113.045C109.813 112.678 109.609 112.18 109.609 111.66C109.609 111.14 109.813 110.642 110.177 110.275C110.879 109.577 112.003 109.577 112.705 110.275Z" stroke="#5062E5" stroke-width="2.73108"/>
</g>
<g filter="url(#filter4_f_135_588)">
<path d="M81.828 97.583C81.828 88.8817 88.7976 81.828 97.3951 81.828C101.524 81.828 105.483 83.4879 108.403 86.4425C111.322 89.3971 112.962 93.4045 112.962 97.583C112.962 106.284 105.993 113.338 97.3951 113.338C88.7976 113.338 81.828 106.284 81.828 97.583Z" stroke="white" stroke-width="1.36554"/>
<path d="M112.705 110.275L117.341 114.022H117.421C118.359 114.972 118.359 116.511 117.421 117.46C116.483 118.409 114.963 118.409 114.025 117.46L110.177 113.045C109.813 112.678 109.609 112.18 109.609 111.66C109.609 111.14 109.813 110.642 110.177 110.275C110.879 109.577 112.003 109.577 112.705 110.275Z" stroke="white" stroke-width="1.36554"/>
</g>
<g filter="url(#filter5_b_135_588)">
<path d="M82.0136 97.5594C82.0136 88.8704 88.9806 81.8265 97.5748 81.8265C101.702 81.8265 105.66 83.4841 108.578 86.4346C111.497 89.3851 113.136 93.3868 113.136 97.5594C113.136 106.248 106.169 113.292 97.5748 113.292C88.9806 113.292 82.0136 106.248 82.0136 97.5594Z" fill="#1E33D0" fill-opacity="0.01"/>
<path d="M112.879 110.234L117.513 113.976H117.594C118.531 114.924 118.531 116.461 117.594 117.409C116.656 118.357 115.136 118.357 114.198 117.409L110.352 112.999C109.988 112.633 109.784 112.136 109.784 111.617C109.784 111.098 109.988 110.6 110.352 110.234C111.053 109.537 112.177 109.537 112.879 110.234Z" fill="#1E33D0" fill-opacity="0.01"/>
</g>
<defs>
<filter id="filter0_f_135_588" x="-4.57849e-05" y="-4.57849e-05" width="199.953" height="200" filterUnits="userSpaceOnUse" color-interpolation-filters="sRGB">
<feFlood flood-opacity="0" result="BackgroundImageFix"/>
<feBlend mode="normal" in="SourceGraphic" in2="BackgroundImageFix" result="shape"/>
<feGaussianBlur stdDeviation="39.7969" result="effect1_foregroundBlur_135_588"/>
</filter>
<filter id="filter1_f_135_588" x="52.3894" y="52.3895" width="95.174" height="95.221" filterUnits="userSpaceOnUse" color-interpolation-filters="sRGB">
<feFlood flood-opacity="0" result="BackgroundImageFix"/>
<feBlend mode="normal" in="SourceGraphic" in2="BackgroundImageFix" result="shape"/>
<feGaussianBlur stdDeviation="13.2656" result="effect1_foregroundBlur_135_588"/>
</filter>
<filter id="filter2_ddi_135_588" x="45.1115" y="71.6477" width="109.73" height="109.777" filterUnits="userSpaceOnUse" color-interpolation-filters="sRGB">
<feFlood flood-opacity="0" result="BackgroundImageFix"/>
<feColorMatrix in="SourceAlpha" type="matrix" values="0 0 0 0 0 0 0 0 0 0 0 0 0 0 0 0 0 0 127 0" result="hardAlpha"/>
<feOffset dy="17.2453"/>
<feGaussianBlur stdDeviation="6.63282"/>
<feColorMatrix type="matrix" values="0 0 0 0 0.0382353 0 0 0 0 0.0647059 0 0 0 0 0.261765 0 0 0 0.7 0"/>
<feBlend mode="multiply" in2="BackgroundImageFix" result="effect1_dropShadow_135_588"/>
<feColorMatrix in="SourceAlpha" type="matrix" values="0 0 0 0 0 0 0 0 0 0 0 0 0 0 0 0 0 0 127 0" result="hardAlpha"/>
<feOffset dy="26.5313"/>
<feGaussianBlur stdDeviation="17.2453"/>
<feColorMatrix type="matrix" values="0 0 0 0 0.0764706 0 0 0 0 0.129412 0 0 0 0 0.523529 0 0 0 1 0"/>
<feBlend mode="color-dodge" in2="effect1_dropShadow_135_588" result="effect2_dropShadow_135_588"/>
<feBlend mode="normal" in="SourceGraphic" in2="effect2_dropShadow_135_588" result="shape"/>
<feColorMatrix in="SourceAlpha" type="matrix" values="0 0 0 0 0 0 0 0 0 0 0 0 0 0 0 0 0 0 127 0" result="hardAlpha"/>
<feOffset dx="-1.72453" dy="3.44906"/>
<feGaussianBlur stdDeviation="0.862266"/>
<feComposite in2="hardAlpha" operator="arithmetic" k2="-1" k3="1"/>
<feColorMatrix type="matrix" values="0 0 0 0 1 0 0 0 0 1 0 0 0 0 1 0 0 0 0.5 0"/>
<feBlend mode="normal" in2="shape" result="effect3_innerShadow_135_588"/>
</filter>
<filter id="filter3_f_135_588" x="79.7793" y="79.7793" width="40.3943" height="40.4413" filterUnits="userSpaceOnUse" color-interpolation-filters="sRGB">
<feFlood flood-opacity="0" result="BackgroundImageFix"/>
<feBlend mode="normal" in="SourceGraphic" in2="BackgroundImageFix" result="shape"/>
<feGaussianBlur stdDeviation="0.341384" result="effect1_foregroundBlur_135_588"/>
</filter>
<filter id="filter4_f_135_588" x="80.6897" y="80.6898" width="38.5733" height="38.6203" filterUnits="userSpaceOnUse" color-interpolation-filters="sRGB">
<feFlood flood-opacity="0" result="BackgroundImageFix"/>
<feBlend mode="normal" in="SourceGraphic" in2="BackgroundImageFix" result="shape"/>
<feGaussianBlur stdDeviation="0.22759" result="effect1_foregroundBlur_135_588"/>
</filter>
<filter id="filter5_b_135_588" x="66.0106" y="65.8235" width="68.2893" height="68.2991" filterUnits="userSpaceOnUse" color-interpolation-filters="sRGB">
<feFlood flood-opacity="0" result="BackgroundImageFix"/>
<feGaussianBlur in="BackgroundImageFix" stdDeviation="8"/>
<feComposite in2="SourceAlpha" operator="in" result="effect1_backgroundBlur_135_588"/>
<feBlend mode="normal" in="SourceGraphic" in2="effect1_backgroundBlur_135_588" result="shape"/>
</filter>
</defs>
</svg>
