<svg width="213" height="258" viewBox="0 0 213 258" fill="none" xmlns="http://www.w3.org/2000/svg">
<ellipse opacity="0.0169492" rx="15.9384" ry="132.462" transform="matrix(-0.75416 0.660196 -0.628181 -0.781028 106.344 129)" stroke="url(#paint0_linear_21_74)" stroke-width="4"/>
<ellipse opacity="0.0338983" rx="15.8271" ry="131.347" transform="matrix(-0.858586 0.517152 -0.485321 -0.876972 106.344 129)" stroke="url(#paint1_linear_21_74)" stroke-width="4"/>
<ellipse opacity="0.0508475" rx="15.7358" ry="130.037" transform="matrix(-0.937026 0.355806 -0.330164 -0.946366 106.344 129)" stroke="url(#paint2_linear_21_74)" stroke-width="4"/>
<ellipse opacity="0.0677966" rx="15.6759" ry="128.46" transform="matrix(-0.985765 0.181338 -0.167035 -0.988289 106.343 129)" stroke="url(#paint3_linear_21_74)" stroke-width="4"/>
<ellipse opacity="0.0847458" cx="106.344" cy="129" rx="15.6912" ry="126.868" transform="rotate(-180 106.344 129)" stroke="url(#paint4_linear_21_74)" stroke-width="4"/>
<ellipse opacity="0.101695" rx="15.6759" ry="124.382" transform="matrix(-0.985765 -0.181338 0.167035 -0.988289 106.344 129)" stroke="url(#paint5_linear_21_74)" stroke-width="4"/>
<ellipse opacity="0.118644" rx="15.7358" ry="121.91" transform="matrix(-0.937026 -0.355806 0.330164 -0.946366 106.343 129)" stroke="url(#paint6_linear_21_74)" stroke-width="4"/>
<ellipse opacity="0.135593" rx="15.8271" ry="119.222" transform="matrix(-0.858586 -0.517152 0.485321 -0.876972 106.344 129)" stroke="url(#paint7_linear_21_74)" stroke-width="4"/>
<ellipse opacity="0.152542" rx="15.9384" ry="116.406" transform="matrix(-0.75416 -0.660196 0.628181 -0.781028 106.344 129)" stroke="url(#paint8_linear_21_74)" stroke-width="4"/>
<ellipse opacity="0.169492" rx="16.056" ry="113.561" transform="matrix(-0.628181 -0.781028 0.75416 -0.660196 106.343 129)" stroke="url(#paint9_linear_21_74)" stroke-width="4"/>
<ellipse opacity="0.186441" rx="16.1658" ry="110.79" transform="matrix(-0.485321 -0.876972 0.858586 -0.517152 106.343 129)" stroke="url(#paint10_linear_21_74)" stroke-width="4"/>
<ellipse opacity="0.20339" rx="16.2547" ry="108.184" transform="matrix(-0.330164 -0.946366 0.937026 -0.355806 106.344 129)" stroke="url(#paint11_linear_21_74)" stroke-width="4"/>
<ellipse opacity="0.220339" rx="16.3124" ry="105.813" transform="matrix(-0.167035 -0.988289 0.985765 -0.181338 106.344 129)" stroke="url(#paint12_linear_21_74)" stroke-width="4"/>
<ellipse opacity="0.237288" cx="106.343" cy="129" rx="16.3701" ry="103.954" transform="rotate(-90 106.343 129)" stroke="url(#paint13_linear_21_74)" stroke-width="4"/>
<ellipse opacity="0.254237" rx="16.3124" ry="101.894" transform="matrix(0.167035 -0.988289 0.985765 0.181338 106.344 129)" stroke="url(#paint14_linear_21_74)" stroke-width="4"/>
<ellipse opacity="0.271186" rx="16.2547" ry="100.316" transform="matrix(0.330164 -0.946366 0.937026 0.355806 106.343 129)" stroke="url(#paint15_linear_21_74)" stroke-width="4"/>
<ellipse opacity="0.288136" rx="16.1658" ry="98.9196" transform="matrix(0.485321 -0.876972 0.858586 0.517152 106.343 129)" stroke="url(#paint16_linear_21_74)" stroke-width="4"/>
<ellipse opacity="0.305085" rx="16.056" ry="97.6229" transform="matrix(0.628181 -0.781028 0.75416 0.660196 106.343 129)" stroke="url(#paint17_linear_21_74)" stroke-width="4"/>
<ellipse opacity="0.322034" rx="15.9384" ry="96.3362" transform="matrix(0.75416 -0.660196 0.628181 0.781028 106.343 129)" stroke="url(#paint18_linear_21_74)" stroke-width="4"/>
<ellipse opacity="0.338983" rx="15.8271" ry="94.9738" transform="matrix(0.858586 -0.517152 0.485321 0.876972 106.344 129)" stroke="url(#paint19_linear_21_74)" stroke-width="4"/>
<ellipse opacity="0.355932" rx="15.7358" ry="93.4643" transform="matrix(0.937026 -0.355806 0.330164 0.946366 106.343 129)" stroke="url(#paint20_linear_21_74)" stroke-width="4"/>
<ellipse opacity="0.372881" rx="15.6759" ry="91.7573" transform="matrix(0.985765 -0.181338 0.167035 0.988289 106.344 129)" stroke="url(#paint21_linear_21_74)" stroke-width="4"/>
<ellipse opacity="0.38983" cx="106.343" cy="129" rx="15.6912" ry="90.0355" stroke="url(#paint22_linear_21_74)" stroke-width="4"/>
<ellipse opacity="0.40678" rx="15.6759" ry="87.6792" transform="matrix(0.985765 0.181338 -0.167035 0.988289 106.344 129)" stroke="url(#paint23_linear_21_74)" stroke-width="4"/>
<ellipse opacity="0.423729" rx="15.7358" ry="85.3369" transform="matrix(0.937026 0.355806 -0.330164 0.946366 106.344 129)" stroke="url(#paint24_linear_21_74)" stroke-width="4"/>
<ellipse opacity="0.440678" rx="15.8271" ry="82.8495" transform="matrix(0.858586 0.517152 -0.485321 0.876972 106.344 129)" stroke="url(#paint25_linear_21_74)" stroke-width="4"/>
<ellipse opacity="0.457627" rx="15.9384" ry="80.2802" transform="matrix(0.75416 0.660196 -0.628181 0.781028 106.344 129)" stroke="url(#paint26_linear_21_74)" stroke-width="4"/>
<ellipse opacity="0.474576" rx="16.056" ry="77.6999" transform="matrix(0.628181 0.781028 -0.75416 0.660196 106.344 129)" stroke="url(#paint27_linear_21_74)" stroke-width="4"/>
<ellipse opacity="0.491525" rx="16.1658" ry="75.1789" transform="matrix(0.485321 0.876972 -0.858586 0.517152 106.344 129)" stroke="url(#paint28_linear_21_74)" stroke-width="4"/>
<ellipse opacity="0.508475" rx="16.2547" ry="72.7782" transform="matrix(0.330164 0.946366 -0.937026 0.355806 106.343 129)" stroke="url(#paint29_linear_21_74)" stroke-width="4"/>
<ellipse opacity="0.525424" rx="16.3124" ry="70.5417" transform="matrix(0.167035 0.988289 -0.985765 0.181338 106.344 129)" stroke="url(#paint30_linear_21_74)" stroke-width="4"/>
<ellipse opacity="0.542373" cx="106.344" cy="129" rx="16.3701" ry="68.6489" transform="rotate(90 106.344 129)" stroke="url(#paint31_linear_21_74)" stroke-width="4"/>
<ellipse opacity="0.559322" rx="16.3124" ry="66.6227" transform="matrix(-0.167035 0.988289 -0.985765 -0.181338 106.344 129)" stroke="url(#paint32_linear_21_74)" stroke-width="4"/>
<ellipse opacity="0.576271" rx="16.2547" ry="64.9103" transform="matrix(-0.330164 0.946366 -0.937026 -0.355806 106.344 129)" stroke="url(#paint33_linear_21_74)" stroke-width="4"/>
<ellipse opacity="0.59322" rx="16.1658" ry="63.3086" transform="matrix(-0.485321 0.876972 -0.858586 -0.517152 106.344 129)" stroke="url(#paint34_linear_21_74)" stroke-width="4"/>
<ellipse opacity="0.610169" rx="16.056" ry="61.7614" transform="matrix(-0.628181 0.781028 -0.75416 -0.660196 106.344 129)" stroke="url(#paint35_linear_21_74)" stroke-width="4"/>
<ellipse opacity="0.627119" rx="15.9384" ry="60.2101" transform="matrix(-0.75416 0.660196 -0.628181 -0.781028 106.344 129)" stroke="url(#paint36_linear_21_74)" stroke-width="4"/>
<ellipse opacity="0.644068" rx="15.8271" ry="58.6009" transform="matrix(-0.858586 0.517152 -0.485321 -0.876972 106.344 129)" stroke="url(#paint37_linear_21_74)" stroke-width="4"/>
<ellipse opacity="0.661017" rx="15.7358" ry="56.8913" transform="matrix(-0.937026 0.355806 -0.330164 -0.946366 106.344 129)" stroke="url(#paint38_linear_21_74)" stroke-width="4"/>
<ellipse opacity="0.677966" rx="15.6759" ry="55.0544" transform="matrix(-0.985765 0.181338 -0.167035 -0.988289 106.344 129)" stroke="url(#paint39_linear_21_74)" stroke-width="4"/>
<ellipse opacity="0.694915" cx="106.343" cy="129" rx="15.6912" ry="53.2028" transform="rotate(-180 106.343 129)" stroke="url(#paint40_linear_21_74)" stroke-width="4"/>
<ellipse opacity="0.711864" rx="15.6759" ry="50.9763" transform="matrix(-0.985765 -0.181338 0.167035 -0.988289 106.344 129)" stroke="url(#paint41_linear_21_74)" stroke-width="4"/>
<ellipse opacity="0.728814" rx="15.7358" ry="48.764" transform="matrix(-0.937026 -0.355806 0.330164 -0.946366 106.343 129)" stroke="url(#paint42_linear_21_74)" stroke-width="4"/>
<ellipse opacity="0.745763" rx="15.8271" ry="46.4765" transform="matrix(-0.858586 -0.517152 0.485321 -0.876972 106.343 129)" stroke="url(#paint43_linear_21_74)" stroke-width="4"/>
<ellipse opacity="0.762712" rx="15.9384" ry="44.1541" transform="matrix(-0.75416 -0.660196 0.628181 -0.781028 106.343 129)" stroke="url(#paint44_linear_21_74)" stroke-width="4"/>
<ellipse opacity="0.779661" rx="16.056" ry="41.8384" transform="matrix(-0.628181 -0.781028 0.75416 -0.660196 106.343 129)" stroke="url(#paint45_linear_21_74)" stroke-width="4"/>
<ellipse opacity="0.79661" rx="16.1658" ry="39.5678" transform="matrix(-0.485321 -0.876972 0.858586 -0.517152 106.344 129)" stroke="url(#paint46_linear_21_74)" stroke-width="4"/>
<ellipse opacity="0.813559" rx="16.2547" ry="37.3726" transform="matrix(-0.330164 -0.946366 0.937026 -0.355806 106.344 129)" stroke="url(#paint47_linear_21_74)" stroke-width="4"/>
<ellipse opacity="0.830508" rx="16.3124" ry="35.2709" transform="matrix(-0.167035 -0.988289 0.985765 -0.181338 106.344 129)" stroke="url(#paint48_linear_21_74)" stroke-width="4"/>
<ellipse opacity="0.847458" cx="106.344" cy="129" rx="16.3701" ry="33.3438" transform="rotate(-90 106.344 129)" stroke="url(#paint49_linear_21_74)" stroke-width="4"/>
<ellipse opacity="0.864407" rx="16.3124" ry="31.3519" transform="matrix(0.167035 -0.988289 0.985765 0.181338 106.344 129)" stroke="url(#paint50_linear_21_74)" stroke-width="4"/>
<ellipse opacity="0.881356" rx="16.2547" ry="29.5047" transform="matrix(0.330164 -0.946366 0.937026 0.355806 106.344 129)" stroke="url(#paint51_linear_21_74)" stroke-width="4"/>
<ellipse opacity="0.898305" rx="16.1658" ry="27.6975" transform="matrix(0.485321 -0.876972 0.858586 0.517152 106.343 129)" stroke="url(#paint52_linear_21_74)" stroke-width="4"/>
<ellipse opacity="0.915254" rx="16.056" ry="25.9" transform="matrix(0.628181 -0.781028 0.75416 0.660196 106.344 129)" stroke="url(#paint53_linear_21_74)" stroke-width="4"/>
<ellipse opacity="0.932203" rx="15.9384" ry="24.084" transform="matrix(0.75416 -0.660196 0.628181 0.781028 106.344 129)" stroke="url(#paint54_linear_21_74)" stroke-width="4"/>
<ellipse opacity="0.949153" rx="15.8271" ry="22.2279" transform="matrix(0.858586 -0.517152 0.485321 0.876972 106.343 129)" stroke="url(#paint55_linear_21_74)" stroke-width="4"/>
<ellipse opacity="0.966102" rx="15.7358" ry="20.3183" transform="matrix(0.937026 -0.355806 0.330164 0.946366 106.344 129)" stroke="url(#paint56_linear_21_74)" stroke-width="4"/>
<ellipse opacity="0.983051" rx="15.6759" ry="18.3515" transform="matrix(0.985765 -0.181338 0.167035 0.988289 106.343 129)" stroke="url(#paint57_linear_21_74)" stroke-width="4"/>
<ellipse cx="106.343" cy="129" rx="15.6912" ry="16.3701" stroke="url(#paint58_linear_21_74)" stroke-width="4"/>
<defs>
<linearGradient id="paint0_linear_21_74" x1="15.9384" y1="0" x2="15.9385" y2="274.859" gradientUnits="userSpaceOnUse">
<stop stop-color="#FF1CF7"/>
<stop offset="1" stop-color="#00F0FF"/>
</linearGradient>
<linearGradient id="paint1_linear_21_74" x1="15.8271" y1="0" x2="15.8272" y2="272.545" gradientUnits="userSpaceOnUse">
<stop stop-color="#FF1CF7"/>
<stop offset="1" stop-color="#00F0FF"/>
</linearGradient>
<linearGradient id="paint2_linear_21_74" x1="15.7358" y1="0" x2="15.7359" y2="269.827" gradientUnits="userSpaceOnUse">
<stop stop-color="#FF1CF7"/>
<stop offset="1" stop-color="#00F0FF"/>
</linearGradient>
<linearGradient id="paint3_linear_21_74" x1="15.6759" y1="0" x2="15.676" y2="266.555" gradientUnits="userSpaceOnUse">
<stop stop-color="#FF1CF7"/>
<stop offset="1" stop-color="#00F0FF"/>
</linearGradient>
<linearGradient id="paint4_linear_21_74" x1="106.553" y1="2.13676" x2="106.553" y2="265.388" gradientUnits="userSpaceOnUse">
<stop stop-color="#FF1CF7"/>
<stop offset="1" stop-color="#00F0FF"/>
</linearGradient>
<linearGradient id="paint5_linear_21_74" x1="15.6759" y1="0" x2="15.676" y2="258.093" gradientUnits="userSpaceOnUse">
<stop stop-color="#FF1CF7"/>
<stop offset="1" stop-color="#00F0FF"/>
</linearGradient>
<linearGradient id="paint6_linear_21_74" x1="15.7358" y1="0" x2="15.7359" y2="252.963" gradientUnits="userSpaceOnUse">
<stop stop-color="#FF1CF7"/>
<stop offset="1" stop-color="#00F0FF"/>
</linearGradient>
<linearGradient id="paint7_linear_21_74" x1="15.8271" y1="0" x2="15.8272" y2="247.387" gradientUnits="userSpaceOnUse">
<stop stop-color="#FF1CF7"/>
<stop offset="1" stop-color="#00F0FF"/>
</linearGradient>
<linearGradient id="paint8_linear_21_74" x1="15.9384" y1="0" x2="15.9385" y2="241.543" gradientUnits="userSpaceOnUse">
<stop stop-color="#FF1CF7"/>
<stop offset="1" stop-color="#00F0FF"/>
</linearGradient>
<linearGradient id="paint9_linear_21_74" x1="16.056" y1="0" x2="16.0561" y2="235.64" gradientUnits="userSpaceOnUse">
<stop stop-color="#FF1CF7"/>
<stop offset="1" stop-color="#00F0FF"/>
</linearGradient>
<linearGradient id="paint10_linear_21_74" x1="16.1658" y1="0" x2="16.1658" y2="229.889" gradientUnits="userSpaceOnUse">
<stop stop-color="#FF1CF7"/>
<stop offset="1" stop-color="#00F0FF"/>
</linearGradient>
<linearGradient id="paint11_linear_21_74" x1="16.2547" y1="0" x2="16.2547" y2="224.481" gradientUnits="userSpaceOnUse">
<stop stop-color="#FF1CF7"/>
<stop offset="1" stop-color="#00F0FF"/>
</linearGradient>
<linearGradient id="paint12_linear_21_74" x1="16.3124" y1="0" x2="16.3124" y2="219.561" gradientUnits="userSpaceOnUse">
<stop stop-color="#FF1CF7"/>
<stop offset="1" stop-color="#00F0FF"/>
</linearGradient>
<linearGradient id="paint13_linear_21_74" x1="106.551" y1="25.1036" x2="106.551" y2="240.808" gradientUnits="userSpaceOnUse">
<stop stop-color="#FF1CF7"/>
<stop offset="1" stop-color="#00F0FF"/>
</linearGradient>
<linearGradient id="paint14_linear_21_74" x1="16.3124" y1="0" x2="16.3124" y2="211.429" gradientUnits="userSpaceOnUse">
<stop stop-color="#FF1CF7"/>
<stop offset="1" stop-color="#00F0FF"/>
</linearGradient>
<linearGradient id="paint15_linear_21_74" x1="16.2547" y1="0" x2="16.2547" y2="208.155" gradientUnits="userSpaceOnUse">
<stop stop-color="#FF1CF7"/>
<stop offset="1" stop-color="#00F0FF"/>
</linearGradient>
<linearGradient id="paint16_linear_21_74" x1="16.1658" y1="0" x2="16.1658" y2="205.258" gradientUnits="userSpaceOnUse">
<stop stop-color="#FF1CF7"/>
<stop offset="1" stop-color="#00F0FF"/>
</linearGradient>
<linearGradient id="paint17_linear_21_74" x1="16.056" y1="0" x2="16.0561" y2="202.568" gradientUnits="userSpaceOnUse">
<stop stop-color="#FF1CF7"/>
<stop offset="1" stop-color="#00F0FF"/>
</linearGradient>
<linearGradient id="paint18_linear_21_74" x1="15.9384" y1="0" x2="15.9385" y2="199.898" gradientUnits="userSpaceOnUse">
<stop stop-color="#FF1CF7"/>
<stop offset="1" stop-color="#00F0FF"/>
</linearGradient>
<linearGradient id="paint19_linear_21_74" x1="15.8271" y1="0" x2="15.8272" y2="197.071" gradientUnits="userSpaceOnUse">
<stop stop-color="#FF1CF7"/>
<stop offset="1" stop-color="#00F0FF"/>
</linearGradient>
<linearGradient id="paint20_linear_21_74" x1="15.7358" y1="0" x2="15.7358" y2="193.938" gradientUnits="userSpaceOnUse">
<stop stop-color="#FF1CF7"/>
<stop offset="1" stop-color="#00F0FF"/>
</linearGradient>
<linearGradient id="paint21_linear_21_74" x1="15.6759" y1="0" x2="15.676" y2="190.396" gradientUnits="userSpaceOnUse">
<stop stop-color="#FF1CF7"/>
<stop offset="1" stop-color="#00F0FF"/>
</linearGradient>
<linearGradient id="paint22_linear_21_74" x1="106.552" y1="39.0543" x2="106.552" y2="225.878" gradientUnits="userSpaceOnUse">
<stop stop-color="#FF1CF7"/>
<stop offset="1" stop-color="#00F0FF"/>
</linearGradient>
<linearGradient id="paint23_linear_21_74" x1="15.6759" y1="0" x2="15.676" y2="181.934" gradientUnits="userSpaceOnUse">
<stop stop-color="#FF1CF7"/>
<stop offset="1" stop-color="#00F0FF"/>
</linearGradient>
<linearGradient id="paint24_linear_21_74" x1="15.7358" y1="0" x2="15.7358" y2="177.074" gradientUnits="userSpaceOnUse">
<stop stop-color="#FF1CF7"/>
<stop offset="1" stop-color="#00F0FF"/>
</linearGradient>
<linearGradient id="paint25_linear_21_74" x1="15.8271" y1="0" x2="15.8272" y2="171.913" gradientUnits="userSpaceOnUse">
<stop stop-color="#FF1CF7"/>
<stop offset="1" stop-color="#00F0FF"/>
</linearGradient>
<linearGradient id="paint26_linear_21_74" x1="15.9384" y1="0" x2="15.9385" y2="166.581" gradientUnits="userSpaceOnUse">
<stop stop-color="#FF1CF7"/>
<stop offset="1" stop-color="#00F0FF"/>
</linearGradient>
<linearGradient id="paint27_linear_21_74" x1="16.056" y1="0" x2="16.056" y2="161.227" gradientUnits="userSpaceOnUse">
<stop stop-color="#FF1CF7"/>
<stop offset="1" stop-color="#00F0FF"/>
</linearGradient>
<linearGradient id="paint28_linear_21_74" x1="16.1658" y1="0" x2="16.1658" y2="155.996" gradientUnits="userSpaceOnUse">
<stop stop-color="#FF1CF7"/>
<stop offset="1" stop-color="#00F0FF"/>
</linearGradient>
<linearGradient id="paint29_linear_21_74" x1="16.2547" y1="0" x2="16.2547" y2="151.015" gradientUnits="userSpaceOnUse">
<stop stop-color="#FF1CF7"/>
<stop offset="1" stop-color="#00F0FF"/>
</linearGradient>
<linearGradient id="paint30_linear_21_74" x1="16.3124" y1="0" x2="16.3124" y2="146.374" gradientUnits="userSpaceOnUse">
<stop stop-color="#FF1CF7"/>
<stop offset="1" stop-color="#00F0FF"/>
</linearGradient>
<linearGradient id="paint31_linear_21_74" x1="106.551" y1="60.4903" x2="106.551" y2="202.937" gradientUnits="userSpaceOnUse">
<stop stop-color="#FF1CF7"/>
<stop offset="1" stop-color="#00F0FF"/>
</linearGradient>
<linearGradient id="paint32_linear_21_74" x1="16.3124" y1="0" x2="16.3124" y2="138.242" gradientUnits="userSpaceOnUse">
<stop stop-color="#FF1CF7"/>
<stop offset="1" stop-color="#00F0FF"/>
</linearGradient>
<linearGradient id="paint33_linear_21_74" x1="16.2547" y1="0" x2="16.2547" y2="134.689" gradientUnits="userSpaceOnUse">
<stop stop-color="#FF1CF7"/>
<stop offset="1" stop-color="#00F0FF"/>
</linearGradient>
<linearGradient id="paint34_linear_21_74" x1="16.1658" y1="0" x2="16.1658" y2="131.365" gradientUnits="userSpaceOnUse">
<stop stop-color="#FF1CF7"/>
<stop offset="1" stop-color="#00F0FF"/>
</linearGradient>
<linearGradient id="paint35_linear_21_74" x1="16.056" y1="0" x2="16.056" y2="128.155" gradientUnits="userSpaceOnUse">
<stop stop-color="#FF1CF7"/>
<stop offset="1" stop-color="#00F0FF"/>
</linearGradient>
<linearGradient id="paint36_linear_21_74" x1="15.9384" y1="0" x2="15.9384" y2="124.936" gradientUnits="userSpaceOnUse">
<stop stop-color="#FF1CF7"/>
<stop offset="1" stop-color="#00F0FF"/>
</linearGradient>
<linearGradient id="paint37_linear_21_74" x1="15.8271" y1="0" x2="15.8271" y2="121.597" gradientUnits="userSpaceOnUse">
<stop stop-color="#FF1CF7"/>
<stop offset="1" stop-color="#00F0FF"/>
</linearGradient>
<linearGradient id="paint38_linear_21_74" x1="15.7358" y1="0" x2="15.7358" y2="118.049" gradientUnits="userSpaceOnUse">
<stop stop-color="#FF1CF7"/>
<stop offset="1" stop-color="#00F0FF"/>
</linearGradient>
<linearGradient id="paint39_linear_21_74" x1="15.6759" y1="0" x2="15.6759" y2="114.238" gradientUnits="userSpaceOnUse">
<stop stop-color="#FF1CF7"/>
<stop offset="1" stop-color="#00F0FF"/>
</linearGradient>
<linearGradient id="paint40_linear_21_74" x1="106.552" y1="75.9719" x2="106.552" y2="186.368" gradientUnits="userSpaceOnUse">
<stop stop-color="#FF1CF7"/>
<stop offset="1" stop-color="#00F0FF"/>
</linearGradient>
<linearGradient id="paint41_linear_21_74" x1="15.6759" y1="0" x2="15.6759" y2="105.776" gradientUnits="userSpaceOnUse">
<stop stop-color="#FF1CF7"/>
<stop offset="1" stop-color="#00F0FF"/>
</linearGradient>
<linearGradient id="paint42_linear_21_74" x1="15.7358" y1="0" x2="15.7358" y2="101.185" gradientUnits="userSpaceOnUse">
<stop stop-color="#FF1CF7"/>
<stop offset="1" stop-color="#00F0FF"/>
</linearGradient>
<linearGradient id="paint43_linear_21_74" x1="15.8271" y1="0" x2="15.8271" y2="96.4388" gradientUnits="userSpaceOnUse">
<stop stop-color="#FF1CF7"/>
<stop offset="1" stop-color="#00F0FF"/>
</linearGradient>
<linearGradient id="paint44_linear_21_74" x1="15.9384" y1="0" x2="15.9384" y2="91.6197" gradientUnits="userSpaceOnUse">
<stop stop-color="#FF1CF7"/>
<stop offset="1" stop-color="#00F0FF"/>
</linearGradient>
<linearGradient id="paint45_linear_21_74" x1="16.056" y1="0" x2="16.056" y2="86.8147" gradientUnits="userSpaceOnUse">
<stop stop-color="#FF1CF7"/>
<stop offset="1" stop-color="#00F0FF"/>
</linearGradient>
<linearGradient id="paint46_linear_21_74" x1="16.1658" y1="0" x2="16.1658" y2="82.1033" gradientUnits="userSpaceOnUse">
<stop stop-color="#FF1CF7"/>
<stop offset="1" stop-color="#00F0FF"/>
</linearGradient>
<linearGradient id="paint47_linear_21_74" x1="16.2547" y1="0" x2="16.2547" y2="77.5481" gradientUnits="userSpaceOnUse">
<stop stop-color="#FF1CF7"/>
<stop offset="1" stop-color="#00F0FF"/>
</linearGradient>
<linearGradient id="paint48_linear_21_74" x1="16.3124" y1="0" x2="16.3124" y2="73.187" gradientUnits="userSpaceOnUse">
<stop stop-color="#FF1CF7"/>
<stop offset="1" stop-color="#00F0FF"/>
</linearGradient>
<linearGradient id="paint49_linear_21_74" x1="106.551" y1="95.8767" x2="106.551" y2="165.065" gradientUnits="userSpaceOnUse">
<stop stop-color="#FF1CF7"/>
<stop offset="1" stop-color="#00F0FF"/>
</linearGradient>
<linearGradient id="paint50_linear_21_74" x1="16.3124" y1="0" x2="16.3124" y2="65.0551" gradientUnits="userSpaceOnUse">
<stop stop-color="#FF1CF7"/>
<stop offset="1" stop-color="#00F0FF"/>
</linearGradient>
<linearGradient id="paint51_linear_21_74" x1="16.2547" y1="0" x2="16.2547" y2="61.2222" gradientUnits="userSpaceOnUse">
<stop stop-color="#FF1CF7"/>
<stop offset="1" stop-color="#00F0FF"/>
</linearGradient>
<linearGradient id="paint52_linear_21_74" x1="16.1658" y1="0" x2="16.1658" y2="57.4723" gradientUnits="userSpaceOnUse">
<stop stop-color="#FF1CF7"/>
<stop offset="1" stop-color="#00F0FF"/>
</linearGradient>
<linearGradient id="paint53_linear_21_74" x1="16.056" y1="0" x2="16.056" y2="53.7424" gradientUnits="userSpaceOnUse">
<stop stop-color="#FF1CF7"/>
<stop offset="1" stop-color="#00F0FF"/>
</linearGradient>
<linearGradient id="paint54_linear_21_74" x1="15.9384" y1="0" x2="15.9384" y2="49.9744" gradientUnits="userSpaceOnUse">
<stop stop-color="#FF1CF7"/>
<stop offset="1" stop-color="#00F0FF"/>
</linearGradient>
<linearGradient id="paint55_linear_21_74" x1="15.8271" y1="0" x2="15.8271" y2="46.1229" gradientUnits="userSpaceOnUse">
<stop stop-color="#FF1CF7"/>
<stop offset="1" stop-color="#00F0FF"/>
</linearGradient>
<linearGradient id="paint56_linear_21_74" x1="15.7358" y1="0" x2="15.7358" y2="42.1605" gradientUnits="userSpaceOnUse">
<stop stop-color="#FF1CF7"/>
<stop offset="1" stop-color="#00F0FF"/>
</linearGradient>
<linearGradient id="paint57_linear_21_74" x1="15.6759" y1="0" x2="15.6759" y2="38.0793" gradientUnits="userSpaceOnUse">
<stop stop-color="#FF1CF7"/>
<stop offset="1" stop-color="#00F0FF"/>
</linearGradient>
<linearGradient id="paint58_linear_21_74" x1="106.552" y1="112.889" x2="106.552" y2="146.857" gradientUnits="userSpaceOnUse">
<stop stop-color="#FF1CF7"/>
<stop offset="1" stop-color="#00F0FF"/>
</linearGradient>
</defs>
</svg>
