<svg width="28" height="28" viewBox="0 0 28 28" fill="none" xmlns="http://www.w3.org/2000/svg">
<path d="M6.99883 9.01129C6.65467 9.21196 6.25917 9.33329 5.83333 9.33329C4.54533 9.33329 3.5 8.28796 3.5 6.99996C3.5 5.71196 4.54533 4.66663 5.83333 4.66663C7.119 4.66663 8.15967 5.70613 8.1655 6.99063L12.8345 9.65763C13.1787 9.45696 13.5742 9.33329 14 9.33329C14.2077 9.33329 14.4048 9.36946 14.5962 9.41963L19.9197 4.09729C19.8695 3.90713 19.8333 3.70879 19.8333 3.49996C19.8333 2.21196 20.8787 1.16663 22.1667 1.16663C23.4547 1.16663 24.5 2.21196 24.5 3.49996C24.5 4.78796 23.4547 5.83329 22.1667 5.83329C21.959 5.83329 21.7607 5.79946 21.5693 5.74813L16.247 11.0705C16.2972 11.263 16.3333 11.459 16.3333 11.6666C16.3333 12.9546 15.288 14 14 14C12.7143 14 11.6737 12.9616 11.6678 11.6783L6.99883 9.01129Z" fill="white" fill-opacity="0.7"/>
<path fill-rule="evenodd" clip-rule="evenodd" d="M25.6667 11.6666C25.6667 11.0238 25.144 10.5 24.5 10.5H19.8333C19.1893 10.5 18.6667 11.0238 18.6667 11.6666V23.3333H17.5V17.5C17.5 16.8571 16.9773 16.3333 16.3333 16.3333H11.6667C11.0227 16.3333 10.5 16.8571 10.5 17.5V23.3333H9.33333V14C9.33333 13.3571 8.81067 12.8333 8.16667 12.8333H3.5C2.856 12.8333 2.33333 13.3571 2.33333 14V23.3333H0V25.6666H28V23.3333H25.6667V11.6666ZM4.66667 23.3333V15.1666H7V23.3333H4.66667ZM15.1667 23.3333V18.6666H12.8333V23.3333H15.1667ZM21 23.3333V12.8333H23.3333V23.3333H21Z" fill="white" fill-opacity="0.7"/>
</svg>
