<svg width="28" height="28" viewBox="0 0 28 28" fill="none" xmlns="http://www.w3.org/2000/svg">
<path fill-rule="evenodd" clip-rule="evenodd" d="M4.66669 14C4.66669 13.5601 4.69717 13.1275 4.75599 12.7038L2.6528 11.4894C2.37381 11.3283 2.2781 10.9716 2.43918 10.6926L5.35584 5.64083C5.51706 5.36184 5.87381 5.26613 6.1528 5.42735L8.25713 6.64229C8.93602 6.11151 9.69025 5.67273 10.5012 5.3446V2.91671C10.5012 2.59456 10.7624 2.33337 11.0845 2.33337H16.9178C17.24 2.33337 17.5012 2.59456 17.5012 2.91671V5.3456C18.3117 5.67373 19.0655 6.11251 19.7439 6.64301L21.8497 5.42735C22.1287 5.26613 22.4854 5.36184 22.6465 5.64083L25.5632 10.6926C25.7242 10.9716 25.6287 11.3283 25.3497 11.4894L23.2442 12.7051C23.303 13.1283 23.3334 13.5605 23.3334 14C23.3334 14.4395 23.303 14.8718 23.2442 15.295L25.3497 16.5107C25.6287 16.6718 25.7242 17.0285 25.5632 17.3075L22.6465 22.3593C22.4854 22.6382 22.1287 22.7339 21.8497 22.5727L19.7439 21.3571C19.0655 21.8876 18.3117 22.3264 17.5012 22.6545V25.0834C17.5012 25.4055 17.24 25.6667 16.9178 25.6667H11.0845C10.7624 25.6667 10.5012 25.4055 10.5012 25.0834V22.6555C9.69025 22.3274 8.93602 21.8886 8.25713 21.3578L6.1528 22.5727C5.87381 22.7339 5.51706 22.6382 5.35584 22.3593L2.43918 17.3075C2.2781 17.0285 2.37381 16.6718 2.6528 16.5107L4.75599 15.2963C4.69717 14.8726 4.66669 14.44 4.66669 14ZM15.1667 4.66671H12.8334V7.09688C11.1416 7.38057 9.65565 8.27124 8.6069 9.53717L6.50214 8.32194L5.33548 10.3427L7.43824 11.5568C7.15483 12.3174 7.00003 13.1407 7.00003 14C7.00003 14.8587 7.15455 15.6811 7.43739 16.4412L5.33434 17.6553L6.50101 19.676L8.60533 18.4611C9.65422 19.728 11.1408 20.6194 12.8334 20.9032V23.3334H15.1667V20.9032C16.8596 20.6192 18.3464 19.7276 19.3953 18.4602L21.5013 19.676L22.668 17.6553L20.563 16.44C20.8455 15.6803 21 14.8582 21 14C21 13.141 20.8452 12.3183 20.5622 11.5579L22.6669 10.3427L21.5002 8.32194L19.3939 9.53802C18.345 8.27167 16.8587 7.38072 15.1667 7.09688V4.66671ZM9.33336 14C9.33336 16.5773 11.4227 18.6667 14 18.6667C16.5773 18.6667 18.6667 16.5773 18.6667 14C18.6667 11.4227 16.5773 9.33337 14 9.33337C11.4227 9.33337 9.33336 11.4227 9.33336 14ZM14 16.3334C15.2887 16.3334 16.3333 15.2887 16.3333 14C16.3333 12.7114 15.2887 11.6667 14 11.6667C12.7113 11.6667 11.6667 12.7114 11.6667 14C11.6667 15.2887 12.7113 16.3334 14 16.3334Z" fill="white" fill-opacity="0.95"/>
</svg>
