<svg width="28" height="28" viewBox="0 0 28 28" fill="none" xmlns="http://www.w3.org/2000/svg">
<path fill-rule="evenodd" clip-rule="evenodd" d="M17.4882 12.8334C17.4882 14.7701 15.9366 16.3334 13.9999 16.3334C12.0632 16.3334 10.4999 14.7701 10.4999 12.8334V5.83337C10.4999 3.89667 12.0632 2.33337 13.9999 2.33337C15.9366 2.33337 17.4999 3.89667 17.4999 5.83337L17.4882 12.8334ZM13.9999 4.31665C13.23 4.31665 12.6 4.9467 12.6 5.71659V12.95C12.6 13.7201 13.23 14.35 13.9999 14.35C14.77 14.35 15.3883 13.7201 15.3883 12.95L15.4 5.71659C15.4 4.9467 14.77 4.31665 13.9999 4.31665Z" fill="white" fill-opacity="0.95"/>
<path d="M20.1471 13.3671C20.1214 13.6689 20.0899 13.9065 20.0527 14.0797C19.4473 16.9013 16.8222 18.7833 13.9999 18.7833C11.1782 18.7833 8.55367 16.902 7.94755 14.0814C7.91024 13.9078 7.87862 13.6696 7.85284 13.3671C7.82707 13.0654 7.57456 12.8334 7.27165 12.8334H6.45333C6.13118 12.8334 5.87 13.0946 5.87 13.4167C5.87 13.4321 5.87056 13.4473 5.87185 13.4626C5.89591 13.7682 5.92497 14.0126 5.95915 14.1957C6.58335 17.543 9.45345 20.1685 12.8333 20.6733V23.3334H11.0833C10.7611 23.3334 10.4999 23.5946 10.4999 23.9167V25.0834C10.4999 25.4055 10.7611 25.6667 11.0833 25.6667H16.9166C17.2387 25.6667 17.4999 25.4055 17.4999 25.0834V23.9167C17.4999 23.5946 17.2387 23.3334 16.9166 23.3334H15.1666V20.6733C18.5818 20.1736 21.4767 17.4993 22.0598 14.0936C22.0873 13.9331 22.1108 13.7222 22.1306 13.4607C22.1549 13.1394 21.9142 12.8594 21.5929 12.8351C21.5783 12.8339 21.5636 12.8334 21.5489 12.8334H20.7285C20.4254 12.8334 20.1729 13.0652 20.1471 13.3671Z" fill="white" fill-opacity="0.95"/>
</svg>
