<svg width="22" height="22" viewBox="0 0 22 22" fill="none" xmlns="http://www.w3.org/2000/svg">
<path d="M6.41859 6.22878C6.79869 5.86094 7.41495 5.86094 7.79505 6.22878L11 9.33038L14.205 6.22879C14.5851 5.86095 15.2014 5.86095 15.5815 6.22879C15.9616 6.59662 15.9616 7.19301 15.5815 7.56084L12.3765 10.6624L15.5815 13.764C15.9616 14.1319 15.9616 14.7282 15.5815 15.0961C15.2014 15.4639 14.5851 15.4639 14.205 15.0961L11 11.9945L7.79506 15.0961C7.41496 15.4639 6.7987 15.4639 6.4186 15.0961C6.0385 14.7283 6.0385 14.1319 6.4186 13.764L9.62358 10.6624L6.41859 7.56083C6.03849 7.19299 6.03849 6.59661 6.41859 6.22878Z" fill="#A24ACC"/>
<path fill-rule="evenodd" clip-rule="evenodd" d="M4.92238 0.325032C8.92922 -0.108344 13.0708 -0.108344 17.0776 0.325032C19.4478 0.581388 21.3618 2.38814 21.6406 4.69513C22.1198 8.65983 22.1198 12.6651 21.6406 16.6298C21.3618 18.9367 19.4478 20.7435 17.0776 20.9999C13.0708 21.4332 8.92922 21.4332 4.92238 20.9999C2.55222 20.7435 0.638191 18.9367 0.359373 16.6298C-0.119791 12.6651 -0.119791 8.65983 0.359373 4.69513C0.638191 2.38814 2.55222 0.581388 4.92238 0.325032ZM16.8614 2.19719C12.9983 1.77935 9.00173 1.77935 5.1386 2.19719C3.65343 2.35782 2.46463 3.49218 2.2928 4.91397C1.83121 8.73327 1.83121 12.5916 2.2928 16.4109C2.46463 17.8327 3.65343 18.9671 5.1386 19.1277C9.00174 19.5455 12.9983 19.5455 16.8614 19.1277C18.3466 18.9671 19.5354 17.8327 19.7072 16.4109C20.1688 12.5916 20.1688 8.73327 19.7072 4.91397C19.5354 3.49218 18.3466 2.35782 16.8614 2.19719Z" fill="#A24ACC"/>
</svg>
